# xmcd CD database file
#
# Track frame offsets:
#	150
#	25876
#	43657
#	64847
#	81821
#	105970
#	127652
#	151083
#	170591
#	195047
#	215195
#	230585
#	250989
#
# Disc length: 3690 seconds
#
# Revision: 0
# Processed by: cddbd v1.5.2PL0 Copyright (c) Steve Scherf et al.
# Submitted via: CDex 1.51
#
DISCID=a00e680d
DTITLE=Philippe LAUDET - Jazz Odyssey - Regarde d'où tu viens
DYEAR=2008
DGENRE=Jazz
TTITLE0=Back home again in Indiana
TTITLE1=Spirit of Saint Louis
TTITLE2=9:20 Special
TTITLE3=Lindy hops the Atlantic
TTITLE4=When lights are low
TTITLE5=Texte libre
TTITLE6=I'm getting sentimental over you
TTITLE7=Manning's meaning
TTITLE8=I've got the world on a string
TTITLE9=In a mellow tone
TTITLE10=Hello Folks
TTITLE11=Too close for comfort
TTITLE12=It will never go
EXTD=YEAR: 2008
EXTT0=
EXTT1=
EXTT2=
EXTT3=
EXTT4=
EXTT5=
EXTT6=
EXTT7=
EXTT8=
EXTT9=
EXTT10=
EXTT11=
EXTT12=
PLAYORDER=
